# xmcd
# 
# Track frame offsets:
#     150
#     21611
#     53573
#     81009
#     114272
#     137698
#     166356
#     191970
#     226590
#     255867
#     288375
#     315318
# 
# Disc length: 4529
# 
# Revision: 1
# Processed by: cddbd v1.5.2PL0 Copyright (c) Steve Scherf et al.
# Submitted via: fre:ac v1.1beta1pre5
# 
DISCID=9411af0c
DTITLE=Stieg Larsson - The Girl Who Kicked The Hornet's Nest
DYEAR=2010
DGENRE=Audiobook
TTITLE0=Girl Who Kicked the Hornets Nest - CD 04 Track 01
TTITLE1=Girl Who Kicked the Hornets Nest - CD 04 Track 02
TTITLE2=Girl Who Kicked the Hornets Nest - CD 04 Track 03
TTITLE3=Girl Who Kicked the Hornets Nest - CD 04 Track 04
TTITLE4=Girl Who Kicked the Hornets Nest - CD 04 Track 05
TTITLE5=Girl Who Kicked the Hornets Nest - CD 04 Track 06
TTITLE6=Girl Who Kicked the Hornets Nest - CD 04 Track 07
TTITLE7=Girl Who Kicked the Hornets Nest - CD 04 Track 08
TTITLE8=Girl Who Kicked the Hornets Nest - CD 04 Track 09
TTITLE9=Girl Who Kicked the Hornets Nest - CD 04 Track 10
TTITLE10=Girl Who Kicked the Hornets Nest - CD 04 Track 11
TTITLE11=Girl Who Kicked the Hornets Nest - CD 04 Track 12
EXTD=YEAR: 2010
EXTT0=
EXTT1=
EXTT2=
EXTT3=
EXTT4=
EXTT5=
EXTT6=
EXTT7=
EXTT8=
EXTT9=
EXTT10=
EXTT11=
PLAYORDER=
